<svg width="256" height="256" viewBox="0 0 256 256" fill="none" xmlns="http://www.w3.org/2000/svg" role="img" aria-label="Apache ECharts logo">
  <rect width="256" height="256" rx="48" fill="#18181B"/>
  <circle cx="128" cy="128" r="82" fill="#5470C6" opacity="0.18"/>
  <path d="M64 157C75.5 123 92 99 114 86C138 72 164 74 192 92" stroke="#91CC75" stroke-width="18" stroke-linecap="round"/>
  <path d="M64 157C82 141 101 134 120 137C145 141 160 160 192 164" stroke="#73C0DE" stroke-width="18" stroke-linecap="round"/>
  <path d="M64 157C91 160 109 173 128 186C147 199 168 202 192 192" stroke="#FAC858" stroke-width="18" stroke-linecap="round"/>
  <circle cx="64" cy="157" r="15" fill="#EE6666"/>
  <circle cx="114" cy="86" r="12" fill="#91CC75"/>
  <circle cx="120" cy="137" r="12" fill="#73C0DE"/>
  <circle cx="128" cy="186" r="12" fill="#FAC858"/>
  <circle cx="192" cy="92" r="15" fill="#5470C6"/>
  <circle cx="192" cy="164" r="12" fill="#73C0DE"/>
  <circle cx="192" cy="192" r="12" fill="#FAC858"/>
</svg>
